# xmcd CD database file
#
# Track frame offsets:
#	150
#	6625
#	22285
#	38595
#	61245
#	81715
#	106117
#	126145
#	144002
#	156937
#	177932
#	198712
#
# Disc length: 3027 seconds
#
# Revision: 2
# Processed by: cddbd v1.5.2PL0 Copyright (c) Steve Scherf et al.
# Submitted via: CDex 1.50Beta7
#
DISCID=a50bd10c
DTITLE=Da Guedes - Cinco Elementos
DYEAR=1998
DGENRE=Rap Nacional
TTITLE0=Intro
TTITLE1=Aqui embaixo
TTITLE2=Ipi yei
TTITLE3=Minha cultura hip hop
TTITLE4=Chega mais
TTITLE5=Vê se muda
TTITLE6=Isso é brasil
TTITLE7=Poa
TTITLE8=Responder pra quê?
TTITLE9=Cagueta na área
TTITLE10=Que lei é esta?
TTITLE11=Tô cansado...
EXTD=My name Thiago Guedes Pereira YEAR: 1998
EXTT0=
EXTT1=
EXTT2=
EXTT3=
EXTT4=
EXTT5=
EXTT6=
EXTT7=
EXTT8=
EXTT9=
EXTT10=
EXTT11=
PLAYORDER=
